<?xml version="1.0" encoding="utf-8"?>
<!-- Generator: Adobe Illustrator 24.0.1, SVG Export Plug-In . SVG Version: 6.00 Build 0)  -->
<svg version="1.1" id="Layer_1" xmlns="http://www.w3.org/2000/svg" xmlns:xlink="http://www.w3.org/1999/xlink" x="0px" y="0px"
	 viewBox="0 0 1366 768" style="enable-background:new 0 0 1366 768;" xml:space="preserve">
<g>
	<path d="M439,377.1v-18.3h86.6c-1.3,45.5-35.7,70.7-72.1,70.7c-37,0-68.6-32.2-68.6-69.2c0-44.4,34-72.9,68.6-72.9
		c26.3,0,48.8,12.4,62.7,37h-23.3c-11.7-13.3-23.3-18.7-38.5-18.7c-26.6,0-49.6,25.2-49.6,52.2c0,28.9,22.8,53.3,50.3,53.3
		c21.6,0,39-12,47.7-34H439z"/>
	<path d="M852.3,413.4c-8,10.7-20.7,16.1-35.3,16.1c-29.4,0-54.8-25.3-54.8-53.1c0-30.9,24.1-54.8,54.9-54.8
		c13.3,0,27.4,5.5,35.5,14.6v-11.8h19.2v89c0,33.3-20.5,53.8-55.3,53.8c-23.5,0-42-12.4-50.7-32.4h21.5
		c7.2,10.2,16.8,14.8,29.4,14.8c23.5,0,35.9-12.8,35.9-36.3H852.3z M852.6,375.7c0-24-18.3-36.4-36.1-36.4
		c-19.1,0-35.1,16.5-35.1,36.4c0,19.6,16.3,36.3,35.3,36.3C839.1,411.9,852.6,392.3,852.6,375.7z"/>
	<path d="M896.5,426.9V290h19.2v136.9H896.5z"/>
	<path d="M954.6,384c4.4,17,17.9,27.9,33.7,27.9c12,0,23.3-6.3,29.2-17.2h19.2c-8,21.1-27.2,34.8-49.2,34.8
		c-28.9,0-52.2-25.5-52.2-52.9c0-32.4,24.4-54.9,51.6-54.9c30.2,0,53.1,23.3,53.1,52.7c0,3.1,0,6.1-0.6,9.6H954.6z M1020.8,369.2
		c-1.5-17.4-16.8-30-33.3-30c-15.7,0-31.4,12.4-32.9,30H1020.8z"/>
</g>
<g>
	<path d="M595.6,338.2c0.9,0,1.6-0.7,1.6-1.6v-9.5c0-0.9-0.7-1.6-1.6-1.6c-0.9,0-1.6,0.7-1.6,1.6v9.5
		C594.1,337.5,594.8,338.2,595.6,338.2z"/>
	<path d="M590.1,336.2c0,0,0.1,0,0.1,0c0.4-0.1,0.7-0.5,0.7-0.9L590,329c-0.1-0.4-0.4-0.7-0.9-0.7c-0.4,0.1-0.7,0.5-0.7,0.9l0.8,6.3
		C589.3,335.9,589.7,336.2,590.1,336.2z"/>
	<path d="M583.7,330.2c-0.1-0.4-0.5-0.7-1-0.6c-0.4,0.1-0.7,0.5-0.6,1l1.6,6.1c0.1,0.4,0.4,0.6,0.8,0.6c0.1,0,0.1,0,0.2,0
		c0.4-0.1,0.7-0.5,0.6-1L583.7,330.2z"/>
	<path d="M577.6,332.1c-0.2-0.4-0.6-0.6-1-0.4c-0.4,0.2-0.6,0.6-0.4,1l2.4,5.8c0.1,0.3,0.4,0.5,0.7,0.5c0.1,0,0.2,0,0.3-0.1
		c0.4-0.2,0.6-0.6,0.4-1L577.6,332.1z"/>
	<path d="M569.1,344.3c0.2,0.2,0.4,0.3,0.6,0.3c0.2,0,0.3-0.1,0.5-0.2c0.3-0.3,0.4-0.8,0.1-1.1l-3.8-5c-0.3-0.3-0.8-0.4-1.1-0.1
		c-0.3,0.3-0.4,0.8-0.1,1.1L569.1,344.3z"/>
	<path d="M564.9,348.1c0.2,0.2,0.4,0.2,0.6,0.2s0.4-0.1,0.6-0.2c0.3-0.3,0.3-0.8,0-1.1l-4.5-4.5c-0.3-0.3-0.8-0.3-1.1,0
		c-0.3,0.3-0.3,0.8,0,1.1L564.9,348.1z"/>
	<path d="M561.3,352.3c0.1,0.1,0.3,0.2,0.5,0.2c0.2,0,0.5-0.1,0.6-0.3c0.3-0.3,0.2-0.8-0.1-1.1l-5-3.8c-0.3-0.3-0.8-0.2-1.1,0.1
		c-0.3,0.3-0.2,0.8,0.1,1.1L561.3,352.3z"/>
	<path d="M562.4,403.1c-0.3-0.3-0.8-0.4-1.1-0.1l-5,3.8c-0.3,0.3-0.4,0.8-0.1,1.1c0.2,0.2,0.4,0.3,0.6,0.3c0.2,0,0.3-0.1,0.5-0.2
		l5-3.8C562.6,403.9,562.7,403.4,562.4,403.1z"/>
	<path d="M566.1,407.2c-0.3-0.3-0.8-0.3-1.1,0l-4.5,4.5c-0.3,0.3-0.3,0.8,0,1.1c0.2,0.2,0.4,0.2,0.6,0.2s0.4-0.1,0.6-0.2l4.5-4.5
		C566.4,408,566.4,407.5,566.1,407.2z"/>
	<path d="M570.2,410.8c-0.3-0.3-0.8-0.2-1.1,0.1l-3.8,5c-0.3,0.3-0.2,0.8,0.1,1.1c0.1,0.1,0.3,0.2,0.5,0.2c0.2,0,0.5-0.1,0.6-0.3
		l3.8-5C570.6,411.6,570.5,411.1,570.2,410.8z"/>
	<path d="M579.6,416.3c-0.4-0.2-0.9,0-1,0.4l-2.4,5.8c-0.2,0.4,0,0.9,0.4,1c0.1,0,0.2,0.1,0.3,0.1c0.3,0,0.6-0.2,0.7-0.5l2.4-5.8
		C580.2,416.9,580,416.4,579.6,416.3z"/>
	<path d="M584.8,418c-0.4-0.1-0.9,0.1-1,0.6l-1.6,6.1c-0.1,0.4,0.1,0.9,0.6,1c0.1,0,0.1,0,0.2,0c0.3,0,0.7-0.2,0.8-0.6l1.6-6.1
		C585.5,418.6,585.2,418.1,584.8,418z"/>
	<path d="M590.2,419.1c-0.4-0.1-0.8,0.2-0.9,0.7l-0.8,6.3c-0.1,0.4,0.2,0.8,0.7,0.9c0,0,0.1,0,0.1,0c0.4,0,0.7-0.3,0.8-0.7l0.8-6.3
		C590.9,419.6,590.6,419.2,590.2,419.1z"/>
	<path d="M601.1,419.1c-0.4,0.1-0.7,0.5-0.7,0.9l0.8,6.3c0.1,0.4,0.4,0.7,0.8,0.7c0,0,0.1,0,0.1,0c0.4-0.1,0.7-0.5,0.7-0.9l-0.8-6.3
		C601.9,419.4,601.5,419,601.1,419.1z"/>
	<path d="M607.4,418.6c-0.1-0.4-0.5-0.7-1-0.6c-0.4,0.1-0.7,0.5-0.6,1l1.6,6.1c0.1,0.4,0.4,0.6,0.8,0.6c0.1,0,0.1,0,0.2,0
		c0.4-0.1,0.7-0.5,0.6-1L607.4,418.6z"/>
	<path d="M612.7,416.7c-0.2-0.4-0.6-0.6-1-0.4c-0.4,0.2-0.6,0.6-0.4,1l2.4,5.8c0.1,0.3,0.4,0.5,0.7,0.5c0.1,0,0.2,0,0.3-0.1
		c0.4-0.2,0.6-0.6,0.4-1L612.7,416.7z"/>
	<path d="M622.2,411c-0.3-0.3-0.8-0.4-1.1-0.1c-0.3,0.3-0.4,0.8-0.1,1.1l3.8,5c0.2,0.2,0.4,0.3,0.6,0.3c0.2,0,0.3-0.1,0.5-0.2
		c0.3-0.3,0.4-0.8,0.1-1.1L622.2,411z"/>
	<path d="M629.9,403c-0.3-0.3-0.8-0.2-1.1,0.1c-0.3,0.3-0.2,0.8,0.1,1.1l5,3.8c0.1,0.1,0.3,0.2,0.5,0.2c0.2,0,0.5-0.1,0.6-0.3
		c0.3-0.3,0.2-0.8-0.1-1.1L629.9,403z"/>
	<path d="M641.1,395.6l-5.8-2.4c-0.4-0.2-0.9,0-1,0.4c-0.2,0.4,0,0.9,0.4,1l5.8,2.4c0.1,0,0.2,0.1,0.3,0.1c0.3,0,0.6-0.2,0.7-0.5
		C641.7,396.3,641.5,395.8,641.1,395.6z"/>
	<path d="M643.1,389.5l-6.1-1.6c-0.4-0.1-0.9,0.1-1,0.6c-0.1,0.4,0.1,0.9,0.6,1l6.1,1.6c0.1,0,0.1,0,0.2,0c0.3,0,0.7-0.2,0.8-0.6
		C643.8,390.1,643.5,389.7,643.1,389.5z"/>
	<path d="M644.2,383.2l-6.3-0.8c-0.4-0.1-0.8,0.2-0.9,0.7c-0.1,0.4,0.2,0.8,0.7,0.9l6.3,0.8c0,0,0.1,0,0.1,0c0.4,0,0.7-0.3,0.8-0.7
		C645,383.7,644.7,383.3,644.2,383.2z"/>
	<path d="M637.1,372.2c0.1,0.4,0.4,0.7,0.8,0.7c0,0,0.1,0,0.1,0l6.3-0.8c0.4-0.1,0.7-0.5,0.7-0.9c-0.1-0.4-0.5-0.7-0.9-0.7l-6.3,0.8
		C637.3,371.4,637,371.7,637.1,372.2z"/>
	<path d="M636,366.8c0.1,0.4,0.4,0.6,0.8,0.6c0.1,0,0.1,0,0.2,0l6.1-1.6c0.4-0.1,0.7-0.5,0.6-1c-0.1-0.4-0.5-0.7-1-0.6l-6.1,1.6
		C636.2,366,635.9,366.4,636,366.8z"/>
	<path d="M640.5,358.2l-5.8,2.4c-0.4,0.2-0.6,0.6-0.4,1c0.1,0.3,0.4,0.5,0.7,0.5c0.1,0,0.2,0,0.3-0.1l5.8-2.4c0.4-0.2,0.6-0.6,0.4-1
		C641.4,358.2,640.9,358,640.5,358.2z"/>
	<path d="M628.8,352.2c0.2,0.2,0.4,0.3,0.6,0.3c0.2,0,0.3-0.1,0.5-0.2l5-3.8c0.3-0.3,0.4-0.8,0.1-1.1c-0.3-0.3-0.8-0.4-1.1-0.1
		l-5,3.8C628.6,351.3,628.6,351.8,628.8,352.2z"/>
	<path d="M625.2,348.1c0.2,0.2,0.4,0.2,0.6,0.2s0.4-0.1,0.6-0.2l4.5-4.5c0.3-0.3,0.3-0.8,0-1.1c-0.3-0.3-0.8-0.3-1.1,0l-4.5,4.5
		C624.9,347.3,624.9,347.7,625.2,348.1z"/>
	<path d="M621.1,344.5c0.1,0.1,0.3,0.2,0.5,0.2c0.2,0,0.5-0.1,0.6-0.3l3.8-5c0.3-0.3,0.2-0.8-0.1-1.1c-0.3-0.3-0.8-0.2-1.1,0.1
		l-3.8,5C620.7,343.7,620.8,344.2,621.1,344.5z"/>
	<path d="M611.6,339c0.1,0,0.2,0.1,0.3,0.1c0.3,0,0.6-0.2,0.7-0.5l2.4-5.8c0.2-0.4,0-0.9-0.4-1c-0.4-0.2-0.9,0-1,0.4l-2.4,5.8
		C611,338.4,611.2,338.8,611.6,339z"/>
	<path d="M606.5,337.2c0.1,0,0.1,0,0.2,0c0.3,0,0.7-0.2,0.8-0.6l1.6-6.1c0.1-0.4-0.1-0.9-0.6-1c-0.4-0.1-0.9,0.1-1,0.6l-1.6,6.1
		C605.8,336.7,606,337.1,606.5,337.2z"/>
	<path d="M601.1,336.2c0,0,0.1,0,0.1,0c0.4,0,0.7-0.3,0.8-0.7l0.8-6.3c0.1-0.4-0.2-0.8-0.7-0.9c-0.4-0.1-0.8,0.2-0.9,0.7l-0.8,6.3
		C600.4,335.7,600.7,336.1,601.1,336.2z"/>
	<path d="M573.8,342.9c0.3,0.5,0.8,0.8,1.4,0.8c0.3,0,0.5-0.1,0.8-0.2c0.8-0.4,1-1.4,0.6-2.2l-4.7-8.2c-0.4-0.8-1.4-1-2.2-0.6
		c-0.8,0.4-1,1.4-0.6,2.2L573.8,342.9z"/>
	<path d="M551.1,353.7l8.2,4.7c0.2,0.1,0.5,0.2,0.8,0.2c0.5,0,1.1-0.3,1.4-0.8c0.4-0.8,0.2-1.7-0.6-2.2l-8.2-4.7
		c-0.8-0.4-1.7-0.2-2.2,0.6S550.4,353.3,551.1,353.7z"/>
	<path d="M561.5,397.4c-0.4-0.8-1.4-1-2.2-0.6l-8.2,4.7c-0.8,0.4-1,1.4-0.6,2.2c0.3,0.5,0.8,0.8,1.4,0.8c0.3,0,0.5-0.1,0.8-0.2
		l8.2-4.7C561.6,399.1,561.9,398.1,561.5,397.4z"/>
	<path d="M575.9,411.8c-0.8-0.4-1.7-0.2-2.2,0.6l-4.7,8.2c-0.4,0.8-0.2,1.7,0.6,2.2c0.2,0.1,0.5,0.2,0.8,0.2c0.5,0,1.1-0.3,1.4-0.8
		l4.7-8.2C576.9,413.2,576.7,412.2,575.9,411.8z"/>
	<path d="M595.6,417.1c-0.9,0-1.6,0.7-1.6,1.6v9.5c0,0.9,0.7,1.6,1.6,1.6c0.9,0,1.6-0.7,1.6-1.6v-9.5
		C597.2,417.8,596.5,417.1,595.6,417.1z"/>
	<path d="M617.5,412.4c-0.4-0.8-1.4-1-2.2-0.6c-0.8,0.4-1,1.4-0.6,2.2l4.7,8.2c0.3,0.5,0.8,0.8,1.4,0.8c0.3,0,0.5-0.1,0.8-0.2
		c0.8-0.4,1-1.4,0.6-2.2L617.5,412.4z"/>
	<path d="M640.2,401.5l-8.2-4.7c-0.8-0.4-1.7-0.2-2.2,0.6c-0.4,0.8-0.2,1.7,0.6,2.2l8.2,4.7c0.2,0.1,0.5,0.2,0.8,0.2
		c0.5,0,1.1-0.3,1.4-0.8C641.2,402.9,640.9,402,640.2,401.5z"/>
	<path d="M646.1,376.1h-9.5c-0.9,0-1.6,0.7-1.6,1.6c0,0.9,0.7,1.6,1.6,1.6h9.5c0.9,0,1.6-0.7,1.6-1.6
		C647.7,376.8,647,376.1,646.1,376.1z"/>
	<path d="M629.8,357.9c0.3,0.5,0.8,0.8,1.4,0.8c0.3,0,0.5-0.1,0.8-0.2l8.2-4.7c0.8-0.4,1-1.4,0.6-2.2c-0.4-0.8-1.4-1-2.2-0.6
		l-8.2,4.7C629.6,356.2,629.4,357.2,629.8,357.9z"/>
	<path d="M615.4,343.5c0.2,0.1,0.5,0.2,0.8,0.2c0.5,0,1.1-0.3,1.4-0.8l4.7-8.2c0.4-0.8,0.2-1.7-0.6-2.2c-0.8-0.4-1.7-0.2-2.2,0.6
		l-4.7,8.2C614.4,342.1,614.6,343,615.4,343.5z"/>
	<path d="M595.6,433.3c-30.7,0-55.6-25-55.6-55.6s25-55.6,55.6-55.6c30.7,0,55.6,25,55.6,55.6S626.3,433.3,595.6,433.3z
		 M595.6,323.6c-29.8,0-54.1,24.2-54.1,54.1s24.2,54.1,54.1,54.1c29.8,0,54.1-24.2,54.1-54.1S625.4,323.6,595.6,323.6z"/>
	<g>
		<path d="M626.9,407.8C626.9,407.8,626.9,407.8,626.9,407.8L600.1,381c0.7-0.9,1.1-2.1,1.1-3.4c0-2.5-1.7-4.7-4-5.4v-23
			c0-0.9-0.7-1.6-1.6-1.6c-0.9,0-1.6,0.7-1.6,1.6v23c-2.3,0.7-4,2.8-4,5.4c0,3.1,2.5,5.6,5.6,5.6c1.3,0,2.4-0.4,3.4-1.1l26.2,26.2
			c0,0,0,0,0,0l4.5,4.5c0.2,0.2,0.4,0.2,0.6,0.2s0.4-0.1,0.6-0.2c0.3-0.3,0.3-0.8,0-1.1L626.9,407.8z M595.6,381.7c-2.2,0-4-1.8-4-4
			c0-2.2,1.8-4,4-4s4,1.8,4,4C599.7,379.9,597.9,381.7,595.6,381.7z"/>
	</g>
</g>
<g>
	<g>
		<path d="M747.9,389.8h-7.6c-0.4,0-0.7-0.3-0.7-0.7s0.3-0.7,0.7-0.7h7.6c0.4,0,0.7,0.3,0.7,0.7
			C748.6,389.5,748.3,389.8,747.9,389.8z"/>
	</g>
	<g>
		<path d="M709.2,358.7c-0.4,0-0.7-0.3-0.7-0.7v-7.6c0-0.4,0.3-0.7,0.7-0.7s0.7,0.3,0.7,0.7v7.6
			C709.8,358.4,709.5,358.7,709.2,358.7z"/>
	</g>
	<g>
		<path d="M678,389.8h-7.6c-0.4,0-0.7-0.3-0.7-0.7s0.3-0.7,0.7-0.7h7.6c0.4,0,0.7,0.3,0.7,0.7C678.7,389.5,678.4,389.8,678,389.8z"
			/>
	</g>
	<g>
		<path d="M709.2,428.5c-0.4,0-0.7-0.3-0.7-0.7v-7.6c0-0.4,0.3-0.7,0.7-0.7s0.7,0.3,0.7,0.7v7.6
			C709.8,428.2,709.5,428.5,709.2,428.5z"/>
	</g>
	<g>
		<path d="M739.2,381.8c-0.3,0-0.6-0.2-0.7-0.5c-0.1-0.4,0.1-0.7,0.5-0.8l7.3-2c0.4-0.1,0.7,0.1,0.8,0.5c0.1,0.4-0.1,0.7-0.5,0.8
			l-7.3,2C739.3,381.8,739.3,381.8,739.2,381.8z"/>
	</g>
	<g>
		<path d="M736.1,374.3c-0.2,0-0.5-0.1-0.6-0.3c-0.2-0.3-0.1-0.8,0.3-0.9l6.6-3.8c0.3-0.2,0.8-0.1,0.9,0.3c0.2,0.3,0.1,0.8-0.3,0.9
			l-6.6,3.8C736.3,374.2,736.2,374.3,736.1,374.3z"/>
	</g>
	<g>
		<path d="M731.2,367.8c-0.2,0-0.4-0.1-0.5-0.2c-0.3-0.3-0.3-0.7,0-1l5.4-5.4c0.3-0.3,0.7-0.3,1,0c0.3,0.3,0.3,0.7,0,1l-5.4,5.4
			C731.5,367.7,731.3,367.8,731.2,367.8z"/>
	</g>
	<g>
		<path d="M724.7,362.9c-0.1,0-0.2,0-0.3-0.1c-0.3-0.2-0.4-0.6-0.3-0.9l3.8-6.6c0.2-0.3,0.6-0.4,0.9-0.3c0.3,0.2,0.4,0.6,0.3,0.9
			l-3.8,6.6C725.2,362.7,724.9,362.9,724.7,362.9z"/>
	</g>
	<g>
		<path d="M717.2,359.8c-0.1,0-0.1,0-0.2,0c-0.4-0.1-0.6-0.5-0.5-0.8l2-7.3c0.1-0.4,0.5-0.6,0.8-0.5c0.4,0.1,0.6,0.5,0.5,0.8l-2,7.3
			C717.8,359.6,717.5,359.8,717.2,359.8z"/>
	</g>
	<g>
		<path d="M701.1,359.8c-0.3,0-0.6-0.2-0.7-0.5l-2-7.3c-0.1-0.4,0.1-0.7,0.5-0.8c0.4-0.1,0.7,0.1,0.8,0.5l2,7.3
			c0.1,0.4-0.1,0.7-0.5,0.8C701.2,359.7,701.2,359.8,701.1,359.8z"/>
	</g>
	<g>
		<path d="M693.6,362.9c-0.2,0-0.5-0.1-0.6-0.3l-3.8-6.6c-0.2-0.3-0.1-0.8,0.3-0.9c0.3-0.2,0.8-0.1,0.9,0.3l3.8,6.6
			c0.2,0.3,0.1,0.8-0.3,0.9C693.8,362.8,693.7,362.9,693.6,362.9z"/>
	</g>
	<g>
		<path d="M687.1,367.8c-0.2,0-0.4-0.1-0.5-0.2l-5.4-5.4c-0.3-0.3-0.3-0.7,0-1c0.3-0.3,0.7-0.3,1,0l5.4,5.4c0.3,0.3,0.3,0.7,0,1
			C687.5,367.7,687.3,367.8,687.1,367.8z"/>
	</g>
	<g>
		<path d="M682.2,374.3c-0.1,0-0.2,0-0.3-0.1l-6.6-3.8c-0.3-0.2-0.4-0.6-0.3-0.9c0.2-0.3,0.6-0.4,0.9-0.3l6.6,3.8
			c0.3,0.2,0.4,0.6,0.3,0.9C682.7,374.1,682.4,374.3,682.2,374.3z"/>
	</g>
	<g>
		<path d="M679.1,381.8c-0.1,0-0.1,0-0.2,0l-7.3-2c-0.4-0.1-0.6-0.5-0.5-0.8c0.1-0.4,0.5-0.6,0.8-0.5l7.3,2c0.4,0.1,0.6,0.5,0.5,0.8
			C679.7,381.6,679.4,381.8,679.1,381.8z"/>
	</g>
	<g>
		<path d="M671.7,399.8c-0.3,0-0.6-0.2-0.7-0.5c-0.1-0.4,0.1-0.7,0.5-0.8l7.3-2c0.4-0.1,0.7,0.1,0.8,0.5c0.1,0.4-0.1,0.7-0.5,0.8
			l-7.3,2C671.9,399.8,671.8,399.8,671.7,399.8z"/>
	</g>
	<g>
		<path d="M675.6,409.2c-0.2,0-0.5-0.1-0.6-0.3c-0.2-0.3-0.1-0.8,0.3-0.9l6.6-3.8c0.3-0.2,0.8-0.1,0.9,0.3c0.2,0.3,0.1,0.8-0.3,0.9
			l-6.6,3.8C675.8,409.2,675.7,409.2,675.6,409.2z"/>
	</g>
	<g>
		<path d="M681.8,417.2c-0.2,0-0.4-0.1-0.5-0.2c-0.3-0.3-0.3-0.7,0-1l5.4-5.4c0.3-0.3,0.7-0.3,1,0c0.3,0.3,0.3,0.7,0,1l-5.4,5.4
			C682.1,417.1,681.9,417.2,681.8,417.2z"/>
	</g>
	<g>
		<path d="M689.8,423.4c-0.1,0-0.2,0-0.3-0.1c-0.3-0.2-0.4-0.6-0.3-0.9l3.8-6.6c0.2-0.3,0.6-0.4,0.9-0.3c0.3,0.2,0.4,0.6,0.3,0.9
			l-3.8,6.6C690.3,423.2,690,423.4,689.8,423.4z"/>
	</g>
	<g>
		<path d="M699.1,427.2c-0.1,0-0.1,0-0.2,0c-0.4-0.1-0.6-0.5-0.5-0.8l2-7.3c0.1-0.4,0.5-0.6,0.8-0.5c0.4,0.1,0.6,0.5,0.5,0.8l-2,7.3
			C699.7,427,699.4,427.2,699.1,427.2z"/>
	</g>
	<g>
		<path d="M719.2,427.2c-0.3,0-0.6-0.2-0.7-0.5l-2-7.3c-0.1-0.4,0.1-0.7,0.5-0.8s0.7,0.1,0.8,0.5l2,7.3c0.1,0.4-0.1,0.7-0.5,0.8
			C719.3,427.2,719.2,427.2,719.2,427.2z"/>
	</g>
	<g>
		<path d="M728.5,423.4c-0.2,0-0.5-0.1-0.6-0.3l-3.8-6.6c-0.2-0.3-0.1-0.8,0.3-0.9c0.3-0.2,0.8-0.1,0.9,0.3l3.8,6.6
			c0.2,0.3,0.1,0.8-0.3,0.9C728.8,423.3,728.6,423.4,728.5,423.4z"/>
	</g>
	<g>
		<path d="M736.5,417.2c-0.2,0-0.4-0.1-0.5-0.2l-5.4-5.4c-0.3-0.3-0.3-0.7,0-1c0.3-0.3,0.7-0.3,1,0l5.4,5.4c0.3,0.3,0.3,0.7,0,1
			C736.9,417.1,736.7,417.2,736.5,417.2z"/>
	</g>
	<g>
		<path d="M742.7,409.2c-0.1,0-0.2,0-0.3-0.1l-6.6-3.8c-0.3-0.2-0.4-0.6-0.3-0.9s0.6-0.4,0.9-0.3l6.6,3.8c0.3,0.2,0.4,0.6,0.3,0.9
			C743.2,409.1,742.9,409.2,742.7,409.2z"/>
	</g>
	<g>
		<path d="M746.6,399.8c-0.1,0-0.1,0-0.2,0l-7.3-2c-0.4-0.1-0.6-0.5-0.5-0.8c0.1-0.4,0.5-0.6,0.8-0.5l7.3,2c0.4,0.1,0.6,0.5,0.5,0.8
			C747.1,399.6,746.9,399.8,746.6,399.8z"/>
	</g>
	<g>
		<path d="M743.6,386.5c-0.2,0-0.3-0.1-0.3-0.3c0-0.2,0.1-0.4,0.3-0.4l4.1-0.4c0.2,0,0.4,0.1,0.4,0.3c0,0.2-0.1,0.4-0.3,0.4
			L743.6,386.5C743.6,386.5,743.6,386.5,743.6,386.5z"/>
	</g>
	<g>
		<path d="M743.2,383.5c-0.2,0-0.3-0.1-0.3-0.3c0-0.2,0.1-0.4,0.3-0.4l4.1-0.7c0.2,0,0.4,0.1,0.4,0.3c0,0.2-0.1,0.4-0.3,0.4
			L743.2,383.5C743.2,383.5,743.2,383.5,743.2,383.5z"/>
	</g>
	<g>
		<path d="M741.7,377.6c-0.1,0-0.3-0.1-0.3-0.2c-0.1-0.2,0-0.4,0.2-0.4l3.9-1.4c0.2-0.1,0.4,0,0.4,0.2c0.1,0.2,0,0.4-0.2,0.4
			l-3.9,1.4C741.7,377.6,741.7,377.6,741.7,377.6z"/>
	</g>
	<g>
		<path d="M740.5,374.9c-0.1,0-0.3-0.1-0.3-0.2c-0.1-0.2,0-0.4,0.2-0.5l3.8-1.8c0.2-0.1,0.4,0,0.5,0.2c0.1,0.2,0,0.4-0.2,0.5
			l-3.8,1.8C740.6,374.8,740.5,374.9,740.5,374.9z"/>
	</g>
	<g>
		<path d="M737.5,369.6c-0.1,0-0.2-0.1-0.3-0.1c-0.1-0.2-0.1-0.4,0.1-0.5l3.4-2.4c0.2-0.1,0.4-0.1,0.5,0.1c0.1,0.2,0.1,0.4-0.1,0.5
			l-3.4,2.4C737.6,369.6,737.5,369.6,737.5,369.6z"/>
	</g>
	<g>
		<path d="M735.6,367.3c-0.1,0-0.2,0-0.3-0.1c-0.1-0.1-0.1-0.4,0-0.5l3.2-2.7c0.1-0.1,0.4-0.1,0.5,0s0.1,0.4,0,0.5l-3.2,2.7
			C735.8,367.2,735.7,367.3,735.6,367.3z"/>
	</g>
	<g>
		<path d="M731.4,363c-0.1,0-0.2,0-0.2-0.1c-0.1-0.1-0.2-0.3,0-0.5l2.7-3.2c0.1-0.1,0.3-0.2,0.5,0s0.2,0.3,0,0.5l-2.7,3.2
			C731.6,362.9,731.5,363,731.4,363z"/>
	</g>
	<g>
		<path d="M729,361.2c-0.1,0-0.1,0-0.2-0.1c-0.2-0.1-0.2-0.3-0.1-0.5l2.4-3.4c0.1-0.2,0.3-0.2,0.5-0.1c0.2,0.1,0.2,0.3,0.1,0.5
			l-2.4,3.4C729.2,361.1,729.1,361.2,729,361.2z"/>
	</g>
	<g>
		<path d="M723.8,358.1c0,0-0.1,0-0.1,0c-0.2-0.1-0.2-0.3-0.2-0.5l1.8-3.8c0.1-0.2,0.3-0.2,0.5-0.2c0.2,0.1,0.2,0.3,0.2,0.5
			l-1.8,3.8C724,358.1,723.9,358.1,723.8,358.1z"/>
	</g>
	<g>
		<path d="M721,357c0,0-0.1,0-0.1,0c-0.2-0.1-0.3-0.3-0.2-0.4l1.4-3.9c0.1-0.2,0.3-0.3,0.4-0.2c0.2,0.1,0.3,0.3,0.2,0.4l-1.4,3.9
			C721.3,356.9,721.1,357,721,357z"/>
	</g>
	<g>
		<path d="M715.2,355.4C715.1,355.4,715.1,355.4,715.2,355.4c-0.2,0-0.4-0.2-0.3-0.4l0.7-4.1c0-0.2,0.2-0.3,0.4-0.3
			c0.2,0,0.3,0.2,0.3,0.4l-0.7,4.1C715.5,355.3,715.3,355.4,715.2,355.4z"/>
	</g>
	<g>
		<path d="M712.2,355C712.2,355,712.1,355,712.2,355c-0.2,0-0.4-0.2-0.3-0.4l0.4-4.1c0-0.2,0.2-0.3,0.4-0.3c0.2,0,0.3,0.2,0.3,0.4
			l-0.4,4.1C712.5,354.9,712.3,355,712.2,355z"/>
	</g>
	<g>
		<path d="M706.1,355c-0.2,0-0.3-0.1-0.3-0.3l-0.4-4.1c0-0.2,0.1-0.4,0.3-0.4c0.2,0,0.4,0.1,0.4,0.3l0.4,4.1
			C706.5,354.8,706.4,355,706.1,355C706.2,355,706.1,355,706.1,355z"/>
	</g>
	<g>
		<path d="M703.1,355.4c-0.2,0-0.3-0.1-0.3-0.3l-0.7-4.1c0-0.2,0.1-0.4,0.3-0.4c0.2,0,0.4,0.1,0.4,0.3l0.7,4.1
			C703.5,355.2,703.4,355.4,703.1,355.4C703.2,355.4,703.2,355.4,703.1,355.4z"/>
	</g>
	<g>
		<path d="M697.3,357c-0.1,0-0.3-0.1-0.3-0.2l-1.4-3.9c-0.1-0.2,0-0.4,0.2-0.4c0.2-0.1,0.4,0,0.4,0.2l1.4,3.9c0.1,0.2,0,0.4-0.2,0.4
			C697.4,357,697.4,357,697.3,357z"/>
	</g>
	<g>
		<path d="M694.5,358.1c-0.1,0-0.3-0.1-0.3-0.2l-1.8-3.8c-0.1-0.2,0-0.4,0.2-0.5c0.2-0.1,0.4,0,0.5,0.2l1.8,3.8
			c0.1,0.2,0,0.4-0.2,0.5C694.6,358.1,694.6,358.1,694.5,358.1z"/>
	</g>
	<g>
		<path d="M689.3,361.2c-0.1,0-0.2-0.1-0.3-0.1l-2.4-3.4c-0.1-0.2-0.1-0.4,0.1-0.5c0.2-0.1,0.4-0.1,0.5,0.1l2.4,3.4
			c0.1,0.2,0.1,0.4-0.1,0.5C689.5,361.1,689.4,361.2,689.3,361.2z"/>
	</g>
	<g>
		<path d="M686.9,363c-0.1,0-0.2,0-0.3-0.1l-2.7-3.2c-0.1-0.1-0.1-0.4,0-0.5s0.4-0.1,0.5,0l2.7,3.2c0.1,0.1,0.1,0.4,0,0.5
			C687.1,363,687,363,686.9,363z"/>
	</g>
	<g>
		<path d="M682.7,367.3c-0.1,0-0.2,0-0.2-0.1l-3.2-2.7c-0.1-0.1-0.2-0.3,0-0.5c0.1-0.1,0.3-0.2,0.5,0l3.2,2.7c0.1,0.1,0.2,0.3,0,0.5
			C682.9,367.2,682.8,367.3,682.7,367.3z"/>
	</g>
	<g>
		<path d="M680.8,369.6c-0.1,0-0.1,0-0.2-0.1l-3.4-2.4c-0.2-0.1-0.2-0.3-0.1-0.5s0.3-0.2,0.5-0.1l3.4,2.4c0.2,0.1,0.2,0.3,0.1,0.5
			C681,369.6,680.9,369.6,680.8,369.6z"/>
	</g>
	<g>
		<path d="M677.8,374.9c0,0-0.1,0-0.1,0l-3.8-1.8c-0.2-0.1-0.2-0.3-0.2-0.5c0.1-0.2,0.3-0.2,0.5-0.2l3.8,1.8
			c0.2,0.1,0.2,0.3,0.2,0.5C678.1,374.8,677.9,374.9,677.8,374.9z"/>
	</g>
	<g>
		<path d="M676.7,377.6c0,0-0.1,0-0.1,0l-3.9-1.4c-0.2-0.1-0.3-0.3-0.2-0.4c0.1-0.2,0.3-0.3,0.4-0.2l3.9,1.4
			c0.2,0.1,0.3,0.3,0.2,0.4C676.9,377.6,676.8,377.6,676.7,377.6z"/>
	</g>
	<g>
		<path d="M674.7,386.5C674.7,386.5,674.7,386.5,674.7,386.5l-4.2-0.4c-0.2,0-0.3-0.2-0.3-0.4c0-0.2,0.2-0.3,0.4-0.3l4.1,0.4
			c0.2,0,0.3,0.2,0.3,0.4C675,386.3,674.9,386.5,674.7,386.5z"/>
	</g>
	<g>
		<path d="M675.1,383.5C675.1,383.5,675.1,383.5,675.1,383.5l-4.2-0.7c-0.2,0-0.3-0.2-0.3-0.4c0-0.2,0.2-0.3,0.4-0.3l4.1,0.7
			c0.2,0,0.3,0.2,0.3,0.4C675.4,383.4,675.3,383.5,675.1,383.5z"/>
	</g>
	<g>
		<path d="M670.6,392.8c-0.2,0-0.3-0.1-0.3-0.3c0-0.2,0.1-0.4,0.3-0.4l4.1-0.4c0.2,0,0.4,0.1,0.4,0.3c0,0.2-0.1,0.4-0.3,0.4
			L670.6,392.8C670.6,392.8,670.6,392.8,670.6,392.8z"/>
	</g>
	<g>
		<path d="M671,396.2c-0.2,0-0.3-0.1-0.3-0.3c0-0.2,0.1-0.4,0.3-0.4l4.1-0.7c0.2,0,0.4,0.1,0.4,0.3c0,0.2-0.1,0.4-0.3,0.4L671,396.2
			C671.1,396.2,671,396.2,671,396.2z"/>
	</g>
	<g>
		<path d="M672.8,402.7c-0.1,0-0.3-0.1-0.3-0.2c-0.1-0.2,0-0.4,0.2-0.4l3.9-1.4c0.2-0.1,0.4,0,0.4,0.2c0.1,0.2,0,0.4-0.2,0.4
			l-3.9,1.4C672.8,402.7,672.8,402.7,672.8,402.7z"/>
	</g>
	<g>
		<path d="M674.1,405.8c-0.1,0-0.3-0.1-0.3-0.2c-0.1-0.2,0-0.4,0.2-0.5l3.8-1.8c0.2-0.1,0.4,0,0.5,0.2c0.1,0.2,0,0.4-0.2,0.5
			l-3.8,1.8C674.2,405.8,674.1,405.8,674.1,405.8z"/>
	</g>
	<g>
		<path d="M677.4,411.7c-0.1,0-0.2-0.1-0.3-0.1c-0.1-0.2-0.1-0.4,0.1-0.5l3.4-2.4c0.2-0.1,0.4-0.1,0.5,0.1c0.1,0.2,0.1,0.4-0.1,0.5
			l-3.4,2.4C677.6,411.7,677.5,411.7,677.4,411.7z"/>
	</g>
	<g>
		<path d="M679.5,414.4c-0.1,0-0.2,0-0.3-0.1c-0.1-0.1-0.1-0.4,0-0.5l3.2-2.7c0.1-0.1,0.4-0.1,0.5,0c0.1,0.1,0.1,0.4,0,0.5l-3.2,2.7
			C679.6,414.3,679.6,414.4,679.5,414.4z"/>
	</g>
	<g>
		<path d="M684.3,419.1c-0.1,0-0.2,0-0.2-0.1c-0.1-0.1-0.2-0.3,0-0.5l2.7-3.2c0.1-0.1,0.3-0.2,0.5,0c0.1,0.1,0.2,0.3,0,0.5l-2.7,3.2
			C684.5,419.1,684.4,419.1,684.3,419.1z"/>
	</g>
	<g>
		<path d="M686.9,421.2c-0.1,0-0.1,0-0.2-0.1c-0.2-0.1-0.2-0.3-0.1-0.5l2.4-3.4c0.1-0.2,0.3-0.2,0.5-0.1c0.2,0.1,0.2,0.3,0.1,0.5
			l-2.4,3.4C687.2,421.1,687,421.2,686.9,421.2z"/>
	</g>
	<g>
		<path d="M692.8,424.6c0,0-0.1,0-0.1,0c-0.2-0.1-0.2-0.3-0.2-0.5l1.8-3.8c0.1-0.2,0.3-0.2,0.5-0.2c0.2,0.1,0.2,0.3,0.2,0.5
			l-1.8,3.8C693,424.5,692.9,424.6,692.8,424.6z"/>
	</g>
	<g>
		<path d="M695.9,425.9c0,0-0.1,0-0.1,0c-0.2-0.1-0.3-0.3-0.2-0.4l1.4-3.9c0.1-0.2,0.3-0.3,0.4-0.2c0.2,0.1,0.3,0.3,0.2,0.4
			l-1.4,3.9C696.2,425.8,696,425.9,695.9,425.9z"/>
	</g>
	<g>
		<path d="M702.4,427.6C702.4,427.6,702.4,427.6,702.4,427.6c-0.2,0-0.4-0.2-0.3-0.4l0.7-4.1c0-0.2,0.2-0.3,0.4-0.3
			c0.2,0,0.3,0.2,0.3,0.4l-0.7,4.1C702.7,427.5,702.6,427.6,702.4,427.6z"/>
	</g>
	<g>
		<path d="M705.8,428.1C705.8,428.1,705.8,428.1,705.8,428.1c-0.2,0-0.4-0.2-0.3-0.4l0.4-4.1c0-0.2,0.2-0.3,0.4-0.3
			c0.2,0,0.3,0.2,0.3,0.4l-0.4,4.1C706.1,427.9,706,428.1,705.8,428.1z"/>
	</g>
	<g>
		<path d="M712.5,428.1c-0.2,0-0.3-0.1-0.3-0.3l-0.4-4.1c0-0.2,0.1-0.4,0.3-0.4c0.2,0,0.4,0.1,0.4,0.3l0.4,4.1
			C712.9,427.9,712.8,428,712.5,428.1C712.5,428.1,712.5,428.1,712.5,428.1z"/>
	</g>
	<g>
		<path d="M715.9,427.6c-0.2,0-0.3-0.1-0.3-0.3l-0.7-4.1c0-0.2,0.1-0.4,0.3-0.4c0.2,0,0.4,0.1,0.4,0.3l0.7,4.1
			C716.3,427.4,716.1,427.6,715.9,427.6C715.9,427.6,715.9,427.6,715.9,427.6z"/>
	</g>
	<g>
		<path d="M722.4,425.9c-0.1,0-0.3-0.1-0.3-0.2l-1.4-3.9c-0.1-0.2,0-0.4,0.2-0.4c0.2-0.1,0.4,0,0.4,0.2l1.4,3.9
			c0.1,0.2,0,0.4-0.2,0.4C722.5,425.9,722.4,425.9,722.4,425.9z"/>
	</g>
	<g>
		<path d="M725.5,424.6c-0.1,0-0.3-0.1-0.3-0.2l-1.8-3.8c-0.1-0.2,0-0.4,0.2-0.5c0.2-0.1,0.4,0,0.5,0.2l1.8,3.8
			c0.1,0.2,0,0.4-0.2,0.5C725.6,424.6,725.6,424.6,725.5,424.6z"/>
	</g>
	<g>
		<path d="M731.4,421.2c-0.1,0-0.2-0.1-0.3-0.1l-2.4-3.4c-0.1-0.2-0.1-0.4,0.1-0.5c0.2-0.1,0.4-0.1,0.5,0.1l2.4,3.4
			c0.1,0.2,0.1,0.4-0.1,0.5C731.5,421.2,731.4,421.2,731.4,421.2z"/>
	</g>
	<g>
		<path d="M734,419.1c-0.1,0-0.2,0-0.3-0.1l-2.7-3.2c-0.1-0.1-0.1-0.4,0-0.5c0.1-0.1,0.4-0.1,0.5,0l2.7,3.2c0.1,0.1,0.1,0.4,0,0.5
			C734.2,419.1,734.1,419.1,734,419.1z"/>
	</g>
	<g>
		<path d="M738.8,414.4c-0.1,0-0.2,0-0.2-0.1l-3.2-2.7c-0.1-0.1-0.2-0.3,0-0.5s0.3-0.2,0.5,0l3.2,2.7c0.1,0.1,0.2,0.3,0,0.5
			C739,414.3,738.9,414.4,738.8,414.4z"/>
	</g>
	<g>
		<path d="M740.9,411.7c-0.1,0-0.1,0-0.2-0.1l-3.4-2.4c-0.2-0.1-0.2-0.3-0.1-0.5c0.1-0.2,0.3-0.2,0.5-0.1l3.4,2.4
			c0.2,0.1,0.2,0.3,0.1,0.5C741.1,411.6,741,411.7,740.9,411.7z"/>
	</g>
	<g>
		<path d="M744.3,405.8c0,0-0.1,0-0.1,0l-3.8-1.8c-0.2-0.1-0.2-0.3-0.2-0.5c0.1-0.2,0.3-0.2,0.5-0.2l3.8,1.8
			c0.2,0.1,0.2,0.3,0.2,0.5C744.5,405.8,744.4,405.8,744.3,405.8z"/>
	</g>
	<g>
		<path d="M745.5,402.7c0,0-0.1,0-0.1,0l-3.9-1.4c-0.2-0.1-0.3-0.3-0.2-0.4c0.1-0.2,0.3-0.3,0.4-0.2l3.9,1.4
			c0.2,0.1,0.3,0.3,0.2,0.4C745.8,402.6,745.7,402.7,745.5,402.7z"/>
	</g>
	<g>
		<path d="M747.3,396.2C747.3,396.2,747.3,396.2,747.3,396.2l-4.2-0.7c-0.2,0-0.3-0.2-0.3-0.4c0-0.2,0.2-0.3,0.4-0.3l4.1,0.7
			c0.2,0,0.3,0.2,0.3,0.4C747.6,396.1,747.5,396.2,747.3,396.2z"/>
	</g>
	<g>
		<path d="M747.7,392.8C747.7,392.8,747.7,392.8,747.7,392.8l-4.2-0.4c-0.2,0-0.3-0.2-0.3-0.4c0-0.2,0.2-0.3,0.4-0.3l4.1,0.4
			c0.2,0,0.3,0.2,0.3,0.4C748.1,392.7,747.9,392.8,747.7,392.8z"/>
	</g>
	<path d="M744.1,357.8l2-2l2,2l5.9-5.9l-7.8-7.8l-5.9,5.9l2,2l-2,2c-7.5-6.6-17-10.9-27.6-11.8v-2.6h2.1v-1.8
		c5.5-2.2,9.3-7.6,9.3-13.8c0-8.2-6.7-14.9-14.9-14.9c-8.2,0-14.9,6.7-14.9,14.9c0,6.2,3.9,11.6,9.3,13.8v1.8h2.1v2.6
		c-10.7,0.7-20.4,5.1-27.9,11.8l-2-2l2-2l-5.9-5.9l-7.8,7.8l5.9,5.9l2-2l2,2c-7.4,8.3-11.9,19.3-11.9,31.2c0,25.9,21.1,47,47,47
		c25.9,0,47-21.1,47-47C756,377,751.5,366.1,744.1,357.8z M703.6,328.9v6.5c-4.3-2.1-7.3-6.5-7.3-11.5c0-7.1,5.7-12.8,12.8-12.8
		c7.1,0,12.8,5.7,12.8,12.8c0,5.1-3,9.5-7.3,11.5v-6.5h2.8v-5.5h-16.6v5.5H703.6z M709,430.5c-22.9,0-41.5-18.6-41.5-41.5
		c0-22.9,18.6-41.5,41.5-41.5c22.9,0,41.5,18.6,41.5,41.5S731.9,430.5,709,430.5z"/>
	<path d="M738.9,383.4l-25.9,4.6c0,0,0,0,0,0c-0.5-1.8-2.1-3.1-4-3.1c-2.3,0-4.1,1.9-4.1,4.1c0,0,0,0,0,0c0,0,0,0-0.1,0l-6.8,1.2
		c-0.4,0.1-0.6,0.4-0.6,0.8c0.1,0.3,0.4,0.6,0.7,0.6c0,0,0.1,0,0.1,0l6.8-1.2c0,0,0,0,0.1,0c0.6,1.6,2.1,2.8,3.9,2.8
		c2.3,0,4.1-1.9,4.1-4.1c0-0.1,0-0.3,0-0.4c0,0,0,0,0,0L739,384c0.2,0,0.3-0.2,0.3-0.4C739.2,383.5,739.1,383.3,738.9,383.4z
		 M709,391.8c-1.5,0-2.8-1.2-2.8-2.8c0-1.5,1.2-2.8,2.8-2.8c1.5,0,2.8,1.2,2.8,2.8C711.7,390.5,710.5,391.8,709,391.8z"/>
	<path d="M709,394.3c-6.5,0-11.8,5.3-11.8,11.8c0,6.5,5.3,11.8,11.8,11.8c6.5,0,11.8-5.3,11.8-11.8
		C720.7,399.6,715.5,394.3,709,394.3z M709.3,417.1v-2.8c0-0.2-0.2-0.3-0.3-0.3s-0.3,0.2-0.3,0.3v2.8c-5.8-0.2-10.5-4.9-10.7-10.7
		h2.8c0.2,0,0.3-0.2,0.3-0.3c0-0.2-0.2-0.3-0.3-0.3h-2.8c0.2-5.8,4.9-10.5,10.7-10.7v2.8c0,0.2,0.2,0.3,0.3,0.3s0.3-0.2,0.3-0.3V395
		c5.8,0.2,10.5,4.9,10.7,10.7h-2.8c-0.2,0-0.3,0.2-0.3,0.3c0,0.2,0.2,0.3,0.3,0.3h2.8C719.9,412.3,715.2,417,709.3,417.1z"/>
	<path d="M714.1,400.9c-0.1-0.1-0.4-0.1-0.5,0l-4.2,4.2c-0.1-0.1-0.3-0.1-0.4-0.1c-0.6,0-1,0.5-1,1c0,0.6,0.5,1,1,1s1-0.5,1-1
		c0-0.2,0-0.3-0.1-0.4l4.2-4.2C714.2,401.3,714.2,401.1,714.1,400.9z M709,406.4c-0.2,0-0.3-0.2-0.3-0.3s0.2-0.3,0.3-0.3
		s0.3,0.2,0.3,0.3S709.2,406.4,709,406.4z"/>
	<path d="M709.3,370.7v-7.3c0-0.2-0.2-0.3-0.3-0.3s-0.3,0.2-0.3,0.3v7.3c-0.4,0.1-0.7,0.5-0.7,1c0,0.6,0.5,1,1,1c0.6,0,1-0.5,1-1
		C710,371.2,709.7,370.8,709.3,370.7z M709,372c-0.2,0-0.3-0.2-0.3-0.3c0-0.2,0.2-0.3,0.3-0.3s0.3,0.2,0.3,0.3
		C709.3,371.9,709.2,372,709,372z"/>
	<path d="M709,359.9c-6.5,0-11.8,5.3-11.8,11.8c0,6.5,5.3,11.8,11.8,11.8c6.5,0,11.8-5.3,11.8-11.8
		C720.7,365.2,715.5,359.9,709,359.9z M714.8,381.1l-0.7-1.2c-0.1-0.2-0.3-0.2-0.5-0.1c-0.2,0.1-0.2,0.3-0.1,0.5l0.7,1.2
		c-1.5,0.8-3.1,1.3-4.9,1.3v-1.4c0-0.2-0.2-0.3-0.3-0.3s-0.3,0.2-0.3,0.3v1.4c-1.8-0.1-3.4-0.5-4.9-1.3l0.7-1.2
		c0.1-0.2,0-0.4-0.1-0.5c-0.2-0.1-0.4,0-0.5,0.1l-0.7,1.2c-1.4-0.9-2.7-2.1-3.6-3.6l1.2-0.7c0.2-0.1,0.2-0.3,0.1-0.5
		c-0.1-0.2-0.3-0.2-0.5-0.1l-1.2,0.7c-0.8-1.5-1.3-3.1-1.3-4.9h1.4c0.2,0,0.3-0.2,0.3-0.3c0-0.2-0.2-0.3-0.3-0.3h-1.4
		c0.1-1.8,0.5-3.4,1.3-4.9l1.2,0.7c0.1,0,0.1,0,0.2,0c0.1,0,0.2-0.1,0.3-0.2c0.1-0.2,0-0.4-0.1-0.5l-1.2-0.7
		c0.9-1.4,2.1-2.7,3.6-3.6l0.7,1.2c0.1,0.1,0.2,0.2,0.3,0.2c0.1,0,0.1,0,0.2,0c0.2-0.1,0.2-0.3,0.1-0.5l-0.7-1.2
		c1.5-0.8,3.1-1.3,4.9-1.3v1.4c0,0.2,0.2,0.3,0.3,0.3s0.3-0.2,0.3-0.3v-1.4c1.8,0.1,3.4,0.5,4.9,1.3l-0.7,1.2
		c-0.1,0.2,0,0.4,0.1,0.5c0.1,0,0.1,0,0.2,0c0.1,0,0.2-0.1,0.3-0.2l0.7-1.2c1.4,0.9,2.7,2.1,3.6,3.6l-1.2,0.7
		c-0.2,0.1-0.2,0.3-0.1,0.5c0.1,0.1,0.2,0.2,0.3,0.2c0.1,0,0.1,0,0.2,0l1.2-0.7c0.8,1.5,1.2,3.1,1.3,4.9h-1.4
		c-0.2,0-0.3,0.2-0.3,0.3c0,0.2,0.2,0.3,0.3,0.3h1.4c-0.1,1.8-0.5,3.4-1.3,4.9l-1.2-0.7c-0.2-0.1-0.4,0-0.5,0.1
		c-0.1,0.2,0,0.4,0.1,0.5l1.2,0.7C717.5,378.9,716.2,380.2,714.8,381.1z"/>
</g>
</svg>
